# xmcd
#
# Track frame offsets:
#	150
#	16737
#	31067
#	48820
#	68920
#	88035
#	107270
#	119742
#	133385
#	148632
#
# Disc length: 2191 seconds
#
# Revision: 5
# Processed by: cddbd v1.5.1PL2 Copyright (c) Steve Scherf et al.
# Submitted via: dBpowerAMP V4.0
#
DISCID=82088d0a
DTITLE=Various Artist - Floor Fillin' Two Steppin' Honky Tonk Hits (volu
DYEAR=1994
DGENRE=Country
TTITLE0=Tanya Tucker - It's A Little Too Late
TTITLE1=Highway 101 - No Chance To Dance
TTITLE2=Pirates of the Mississippi - Pop From The Top
TTITLE3=Pearl River - Find Out What's Happening
TTITLE4=Chris Ledoux - Cadillac Ranch
TTITLE5=Ricky Lynne Gregg - If I Had A Cheatin' Heart
TTITLE6=Charlie Floyd - Good Girls Go To Heaven
TTITLE7=Suzy Bogguss - I'm At Home On The Range
TTITLE8=Palomino Road - Why Baby Why
TTITLE9=Charlie Daniels - All Night Long
EXTD=
EXTT0=
EXTT1=
EXTT2=
EXTT3=
EXTT4=
EXTT5=
EXTT6=
EXTT7=
EXTT8=
EXTT9=
PLAYORDER=
